<svg width="110" height="140" viewBox="0 0 110 140" fill="none" xmlns="http://www.w3.org/2000/svg">
<path d="M8.43464 113.813H4.8487L11.3776 95.2675H15.525L22.063 113.813H18.4771L13.5238 99.0708H13.3789L8.43464 113.813ZM8.55236 106.541H18.3322V109.24H8.55236V106.541ZM27.8653 95.2675V113.813H24.5057V95.2675H27.8653ZM53.7026 101.525H50.3159C50.2193 100.969 50.0412 100.477 49.7816 100.049C49.522 99.6141 49.199 99.2458 48.8127 98.944C48.4263 98.6421 47.9856 98.4158 47.4906 98.2648C47.0016 98.1079 46.4733 98.0294 45.9059 98.0294C44.8977 98.0294 44.0042 98.2829 43.2255 98.79C42.4467 99.2911 41.837 100.028 41.3963 101C40.9556 101.965 40.7352 103.146 40.7352 104.54C40.7352 105.959 40.9556 107.154 41.3963 108.126C41.843 109.092 42.4527 109.823 43.2255 110.318C44.0042 110.807 44.8947 111.051 45.8968 111.051C46.4522 111.051 46.9714 110.979 47.4543 110.834C47.9433 110.683 48.381 110.462 48.7674 110.173C49.1598 109.883 49.4888 109.527 49.7544 109.104C50.0261 108.682 50.2132 108.199 50.3159 107.655L53.7026 107.673C53.5758 108.555 53.3011 109.382 52.8785 110.155C52.462 110.927 51.9156 111.609 51.2395 112.201C50.5634 112.787 49.7725 113.245 48.867 113.578C47.9614 113.904 46.9563 114.067 45.8515 114.067C44.2216 114.067 42.7667 113.689 41.4868 112.935C40.207 112.18 39.1988 111.09 38.4623 109.666C37.7258 108.241 37.3576 106.532 37.3576 104.54C37.3576 102.542 37.7288 100.834 38.4714 99.4149C39.2139 97.9902 40.2251 96.9005 41.5049 96.1459C42.7848 95.3913 44.2336 95.0139 45.8515 95.0139C46.8839 95.0139 47.8437 95.1588 48.7312 95.4486C49.6186 95.7384 50.4094 96.164 51.1037 96.7254C51.7979 97.2808 52.3684 97.963 52.8151 98.7719C53.2679 99.5748 53.5637 100.492 53.7026 101.525ZM56.7791 113.813V95.2675H60.1387V110.997H68.3067V113.813H56.7791ZM82.913 95.2675H86.2726V107.384C86.2726 108.712 85.9587 109.88 85.3308 110.888C84.709 111.896 83.8337 112.684 82.7047 113.252C81.5758 113.813 80.2568 114.094 78.7475 114.094C77.2323 114.094 75.9102 113.813 74.7813 113.252C73.6524 112.684 72.777 111.896 72.1552 110.888C71.5334 109.88 71.2225 108.712 71.2225 107.384V95.2675H74.5821V107.103C74.5821 107.876 74.7511 108.564 75.0892 109.168C75.4333 109.771 75.9162 110.245 76.538 110.589C77.1598 110.927 77.8963 111.096 78.7475 111.096C79.5987 111.096 80.3353 110.927 80.9571 110.589C81.5849 110.245 82.0678 109.771 82.4059 109.168C82.744 108.564 82.913 107.876 82.913 107.103V95.2675ZM89.9242 113.813V95.2675H97.0236C98.3638 95.2675 99.4776 95.4788 100.365 95.9014C101.259 96.3179 101.926 96.8884 102.366 97.6128C102.813 98.3373 103.036 99.1583 103.036 100.076C103.036 100.831 102.891 101.476 102.602 102.014C102.312 102.545 101.923 102.977 101.434 103.309C100.945 103.641 100.398 103.879 99.7945 104.024V104.205C100.453 104.241 101.083 104.444 101.687 104.812C102.297 105.174 102.795 105.687 103.181 106.351C103.568 107.015 103.761 107.818 103.761 108.76C103.761 109.72 103.528 110.583 103.064 111.35C102.599 112.111 101.898 112.711 100.963 113.152C100.027 113.593 98.8498 113.813 97.4311 113.813H89.9242ZM93.2837 111.006H96.8968C98.1163 111.006 98.9947 110.773 99.5319 110.309C100.075 109.838 100.347 109.234 100.347 108.497C100.347 107.948 100.211 107.453 99.9394 107.012C99.6678 106.566 99.2814 106.215 98.7803 105.962C98.2793 105.702 97.6816 105.573 96.9874 105.573H93.2837V111.006ZM93.2837 103.155H96.607C97.1866 103.155 97.7088 103.049 98.1736 102.838C98.6385 102.62 99.0037 102.316 99.2693 101.923C99.541 101.525 99.6768 101.054 99.6768 100.511C99.6768 99.7922 99.4233 99.2006 98.9162 98.7357C98.4151 98.2709 97.6695 98.0384 96.6795 98.0384H93.2837V103.155ZM3.79644 133.813V121.813H7.99175C8.82769 121.813 9.51714 121.957 10.0601 122.247C10.6031 122.532 11.0074 122.916 11.273 123.401C11.5386 123.881 11.6714 124.415 11.6714 125C11.6714 125.516 11.5796 125.942 11.396 126.278C11.2164 126.614 10.9781 126.879 10.6812 127.075C10.3882 127.27 10.0699 127.415 9.72612 127.508V127.625C10.0933 127.649 10.4625 127.778 10.8335 128.012C11.2046 128.247 11.5152 128.582 11.7652 129.02C12.0152 129.457 12.1402 129.993 12.1402 130.625C12.1402 131.227 12.0035 131.768 11.73 132.248C11.4566 132.729 11.025 133.11 10.4351 133.391C9.84526 133.672 9.07769 133.813 8.13237 133.813H3.79644ZM5.24956 132.524H8.13237C9.08159 132.524 9.75542 132.34 10.1539 131.973C10.5562 131.602 10.7574 131.153 10.7574 130.625C10.7574 130.219 10.6539 129.844 10.4468 129.5C10.2398 129.153 9.94487 128.875 9.56206 128.668C9.17925 128.457 8.72612 128.352 8.20269 128.352H5.24956V132.524ZM5.24956 127.086H7.94487C8.38237 127.086 8.77691 127 9.12847 126.829C9.48394 126.657 9.76519 126.415 9.97222 126.102C10.1832 125.79 10.2886 125.422 10.2886 125C10.2886 124.473 10.105 124.026 9.73784 123.659C9.37066 123.288 8.78862 123.102 7.99175 123.102H5.24956V127.086ZM17.0535 121.813V133.813H15.6004V121.813H17.0535ZM20.3833 123.102V121.813H29.3833V123.102H25.6099V133.813H24.1568V123.102H20.3833ZM39.261 124.813C39.1907 124.219 38.9055 123.758 38.4055 123.43C37.9055 123.102 37.2923 122.938 36.5657 122.938C36.0344 122.938 35.5696 123.024 35.1712 123.196C34.7766 123.368 34.468 123.604 34.2454 123.905C34.0266 124.206 33.9173 124.547 33.9173 124.93C33.9173 125.25 33.9934 125.526 34.1458 125.756C34.302 125.983 34.5012 126.172 34.7434 126.325C34.9856 126.473 35.2395 126.596 35.5051 126.694C35.7708 126.788 36.0149 126.864 36.2376 126.922L37.4563 127.25C37.7688 127.332 38.1165 127.446 38.4993 127.59C38.886 127.735 39.2551 127.932 39.6067 128.182C39.9622 128.428 40.2551 128.745 40.4856 129.131C40.7161 129.518 40.8313 129.993 40.8313 130.555C40.8313 131.204 40.6614 131.79 40.3216 132.313C39.9856 132.836 39.4934 133.252 38.845 133.561C38.2005 133.87 37.4173 134.024 36.4954 134.024C35.636 134.024 34.8919 133.885 34.263 133.608C33.638 133.331 33.1458 132.944 32.7864 132.448C32.4309 131.952 32.2298 131.375 32.1829 130.719H33.6829C33.7219 131.172 33.8743 131.547 34.1399 131.844C34.4094 132.137 34.7493 132.356 35.1594 132.5C35.5735 132.641 36.0188 132.711 36.4954 132.711C37.0501 132.711 37.5481 132.622 37.9895 132.442C38.4309 132.258 38.7805 132.004 39.0384 131.68C39.2962 131.352 39.4251 130.969 39.4251 130.532C39.4251 130.133 39.3137 129.809 39.0911 129.559C38.8684 129.309 38.5755 129.106 38.2122 128.95C37.8489 128.793 37.4563 128.657 37.0344 128.54L35.5579 128.118C34.6204 127.848 33.8782 127.463 33.3313 126.963C32.7844 126.463 32.511 125.809 32.511 125C32.511 124.329 32.6926 123.743 33.0559 123.243C33.4231 122.739 33.9153 122.348 34.5325 122.071C35.1536 121.79 35.8469 121.649 36.6126 121.649C37.386 121.649 38.0735 121.788 38.6751 122.065C39.2766 122.338 39.7532 122.713 40.1048 123.19C40.4602 123.666 40.6477 124.207 40.6673 124.813H39.261ZM50.0061 133.813V121.813H54.0608C55.0022 121.813 55.7717 121.983 56.3694 122.323C56.9709 122.659 57.4163 123.114 57.7053 123.688C57.9944 124.262 58.1389 124.903 58.1389 125.61C58.1389 126.317 57.9944 126.959 57.7053 127.538C57.4202 128.116 56.9788 128.577 56.3811 128.92C55.7834 129.26 55.0178 129.43 54.0842 129.43H51.178V128.141H54.0374C54.6819 128.141 55.1995 128.03 55.5901 127.807C55.9807 127.584 56.2639 127.284 56.4397 126.905C56.6194 126.522 56.7092 126.09 56.7092 125.61C56.7092 125.129 56.6194 124.7 56.4397 124.321C56.2639 123.942 55.9788 123.645 55.5842 123.43C55.1897 123.211 54.6663 123.102 54.0139 123.102H51.4592V133.813H50.0061ZM63.0054 121.813V133.813H61.5522V121.813H63.0054ZM66.9914 133.813V121.813H68.4446V132.524H74.0227V133.813H66.9914ZM78.5947 133.813H77.0713L81.4775 121.813H82.9775L87.3838 133.813H85.8603L82.2744 123.711H82.1806L78.5947 133.813ZM79.1572 129.125H85.2978V130.415H79.1572V129.125ZM99.841 121.813V133.813H98.4348L91.8957 124.391H91.7785V133.813H90.3254V121.813H91.7316L98.2941 131.258H98.4113V121.813H99.841ZM105.274 121.813V133.813H103.821V121.813H105.274Z" fill="white"/>
<mask id="path-2-inside-1_77_53" fill="white">
<path d="M90.5376 16.6051C90.7298 16.6062 90.7298 16.6062 90.9257 16.6072C91.1271 16.6072 91.1271 16.6072 91.3325 16.6072C91.7783 16.6073 92.2242 16.6089 92.67 16.6104C92.9783 16.6108 93.2865 16.6111 93.5948 16.6113C94.4078 16.612 95.2208 16.614 96.0338 16.6162C96.8628 16.6182 97.6917 16.6191 98.5207 16.6201C100.148 16.6223 101.776 16.6258 103.404 16.6299C103.404 17.7485 103.404 18.867 103.404 20.0195C103.842 20.0195 104.279 20.0195 104.73 20.0195C104.896 20.2189 104.896 20.2189 104.916 20.5684C104.915 20.7202 104.915 20.8721 104.915 21.0286C104.915 21.286 104.915 21.286 104.915 21.5487C104.914 21.7352 104.913 21.9217 104.912 22.1139C104.912 22.3039 104.912 22.4939 104.911 22.6897C104.91 23.2992 104.908 23.9087 104.906 24.5182C104.905 24.9304 104.905 25.3425 104.904 25.7547C104.902 26.7673 104.899 27.78 104.896 28.7926C105.178 28.7865 105.178 28.7865 105.466 28.7802C106.056 28.7926 106.056 28.7926 106.222 28.992C106.234 29.3282 106.236 29.665 106.233 30.0014C106.231 30.1847 106.23 30.368 106.228 30.5568C106.226 30.6984 106.224 30.84 106.222 30.9859C105.894 30.9859 105.566 30.9859 105.227 30.9859C105.271 31.9222 105.315 32.8585 105.36 33.7947C105.375 34.1126 105.39 34.4305 105.405 34.7484C105.426 35.2078 105.448 35.6671 105.47 36.1264C105.477 36.2665 105.483 36.4065 105.49 36.5508C105.528 37.3449 105.597 38.1252 105.684 38.9143C105.771 39.8611 105.802 40.8136 105.844 41.7646C105.86 42.1067 105.86 42.1067 105.876 42.4557C105.909 43.181 105.941 43.9063 105.973 44.6316C106.016 45.5868 106.059 46.542 106.103 47.4971C106.113 47.714 106.122 47.9308 106.132 48.1543C106.179 49.1993 106.246 50.2341 106.348 51.2732C106.426 52.1509 106.461 53.0323 106.501 53.9134C106.511 54.1217 106.521 54.3301 106.531 54.5447C106.563 55.2198 106.595 55.8949 106.626 56.5701C106.648 57.0364 106.67 57.5028 106.693 57.9692C106.793 60.0817 106.891 62.1944 106.986 64.3073C106.997 64.5561 106.997 64.5561 107.008 64.81C107.043 65.5681 107.077 66.3263 107.11 67.0846C107.122 67.3523 107.134 67.62 107.146 67.8878C107.155 68.1131 107.165 68.3384 107.176 68.5706C107.206 69.0863 107.246 69.5928 107.296 70.1057C107.401 71.2042 107.455 72.3047 107.508 73.4083C107.518 73.6293 107.529 73.8503 107.54 74.078C107.563 74.5436 107.585 75.0093 107.608 75.475C107.641 76.1794 107.676 76.8838 107.711 77.5881C107.733 78.0434 107.755 78.4986 107.777 78.9539C107.787 79.1606 107.798 79.3674 107.808 79.5804C107.881 81.1356 107.88 82.6583 107.88 84.2229C100.494 84.2229 92.711 84.2229 85.1016 84.2229C85.1016 76.048 85.4992 76.0479 85.665 74.2534C85.684 73.9255 85.7003 73.5973 85.7116 73.2689C85.7178 73.1029 85.724 72.9368 85.7304 72.7658C85.739 72.5152 85.739 72.5152 85.7479 72.2595C85.7811 71.2963 85.8179 70.3399 85.9137 69.3824C86.0351 68.1519 86.0592 66.9164 86.0969 65.6789C86.1031 65.4936 86.1093 65.3083 86.1157 65.1173C86.1207 64.9523 86.1257 64.7872 86.1309 64.6172C86.1623 64.0846 86.1623 64.0845 86.2423 63.4425C86.3253 62.7137 86.3724 61.9973 86.4059 61.263C86.4122 61.1285 86.4185 60.994 86.4249 60.8555C86.4454 60.4149 86.4651 59.9743 86.4848 59.5336C86.4992 59.2212 86.5136 58.9087 86.5281 58.5962C86.5653 57.7904 86.602 56.9846 86.6384 56.1787C86.6713 55.454 86.7046 54.7294 86.7379 54.0048C86.7442 53.868 86.7504 53.7313 86.7569 53.5904C86.7759 53.1783 86.7948 52.7662 86.8138 52.3541C86.8201 52.2169 86.8264 52.0796 86.8329 51.9382C87.1549 44.9476 87.5277 37.9659 87.9859 30.9859C87.603 30.9859 87.22 30.9859 86.8255 30.9859C86.8255 30.2621 86.8255 29.5383 86.8255 28.7926C87.2631 28.7926 87.7008 28.7926 88.1517 28.7926C88.139 28.6869 88.1264 28.5811 88.1133 28.4721C87.958 26.9588 87.9895 25.4635 88.0352 23.9442C88.0483 23.5042 88.0593 23.0641 88.0701 22.624C88.1288 20.4734 88.1288 20.4734 88.3175 20.0195C88.7005 20.0195 89.0834 20.0195 89.478 20.0195C89.4761 19.7915 89.4742 19.5635 89.4722 19.3286C89.4706 19.0314 89.4691 18.7341 89.4676 18.4368C89.4663 18.2864 89.4649 18.1359 89.4634 17.9808C89.462 17.5969 89.4693 17.213 89.478 16.8293C89.7689 16.4795 90.1503 16.606 90.5376 16.6051ZM95.6016 22.8234C95.3496 23.45 95.4826 23.9469 95.612 24.6055C95.7214 24.7371 95.8308 24.8687 95.9436 25.0042C96.1297 26.2215 96.1201 27.4628 96.0673 28.6945C96.0592 28.9117 96.0512 29.1289 96.043 29.3526C96.025 29.7954 96.0012 30.2379 95.9717 30.6798C95.9525 31.3654 95.9607 31.9173 96.1094 32.581C96.4791 33.063 96.4791 33.063 96.9363 33.4907C97.5168 34.1042 97.8106 34.531 97.909 35.4456C97.9628 36.4781 97.9282 37.5053 97.8915 38.5378C97.8861 38.8966 97.8813 39.2554 97.8773 39.6142C97.8291 42.4311 97.8291 42.4311 97.4356 43.1487C97.3262 43.1487 97.2168 43.1487 97.1041 43.1487C97.1041 43.2803 97.1041 43.4119 97.1041 43.5474C96.9946 43.5474 96.8852 43.5474 96.7725 43.5474C96.7725 43.679 96.7725 43.8106 96.7725 43.9462C95.874 43.4358 95.3578 42.5653 94.752 41.6532C94.6478 41.4993 94.5436 41.3453 94.4363 41.1867C94.0337 40.5891 93.646 40.0007 93.291 39.3603C93.1816 39.3603 93.0722 39.3603 92.9595 39.3603C92.9595 36.0046 92.9595 32.6488 92.9595 29.1914C93.1783 29.0598 93.3971 28.9282 93.6226 28.7926C93.6966 27.9351 93.6966 27.9351 93.3636 27.21C92.7897 26.9091 92.3982 27.024 91.799 27.1975C91.4238 27.5703 91.4238 27.5703 91.3949 28.1571C91.4106 28.8315 91.4106 28.8315 91.8827 29.1992C92.4911 30.0676 92.388 30.7976 92.3553 31.8964C92.3523 32.3184 92.3496 32.7404 92.3472 33.1625C92.3386 33.8237 92.3275 34.4845 92.3117 35.1455C92.1616 38.18 92.1616 38.18 93.2476 40.7856C93.532 41.1162 93.8221 41.44 94.1199 41.7529C94.2835 41.979 94.4436 42.2089 94.5966 42.4454C94.8347 42.7944 95.0731 43.1434 95.3115 43.4921C95.9181 44.4088 95.9572 44.6592 96.1094 45.9401C94.6869 45.9401 93.2645 45.9401 91.799 45.9401C91.6896 45.6111 91.5801 45.2821 91.4674 44.9432C91.0686 44.4635 90.859 44.424 90.3069 44.345C89.9369 44.4185 89.9369 44.4185 89.6438 44.5444C89.6438 44.676 89.6438 44.8076 89.6438 44.9432C89.5344 44.9432 89.425 44.9432 89.3122 44.9432C89.0857 45.5939 88.9523 45.9897 89.0843 46.6878C89.3519 47.2146 89.487 47.3558 89.9754 47.5352C90.4657 47.635 90.4657 47.635 90.9701 47.5352C91.0962 47.4046 91.2223 47.274 91.3523 47.1394C91.8858 46.6596 92.1641 46.6318 92.8228 46.6162C93.0146 46.6097 93.2064 46.6033 93.404 46.5967C93.6027 46.5939 93.8013 46.591 94.006 46.5881C94.3087 46.5793 94.3087 46.5793 94.6176 46.5702C95.1149 46.5562 95.612 46.5456 96.1094 46.5383C96.1774 51.3003 96.1774 51.3004 95.3219 52.5324C95.0878 52.7951 94.8529 53.0568 94.6173 53.3175C93.9178 54.2638 93.6656 55.0368 93.6806 56.3163C93.6791 56.4702 93.6777 56.6241 93.6762 56.7826C93.6729 57.288 93.6758 57.793 93.6796 58.2984C93.6802 58.6527 93.6808 59.0071 93.6812 59.3615C93.6833 60.1035 93.6888 60.8454 93.6965 61.5874C93.7057 62.5326 93.7027 63.4771 93.6966 64.4223C93.6938 65.1544 93.6993 65.8862 93.7071 66.6183C93.7094 66.9663 93.7089 67.3144 93.7053 67.6625C93.6894 69.5257 93.741 70.8707 94.8605 72.2551C95.1604 72.5976 95.4683 72.9262 95.7778 73.2565C95.8872 73.4539 95.9966 73.6513 96.1094 73.8546C96.2188 73.8546 96.3282 73.8546 96.4409 73.8546C96.7448 74.7576 96.7642 75.3005 96.6067 76.2473C96.6888 76.5434 96.6888 76.5434 96.7725 76.8455C96.8819 76.8455 96.9913 76.8455 97.1041 76.8455C97.1041 76.9771 97.1041 77.1087 97.1041 77.2443C98.0221 77.4595 98.0221 77.4595 98.9173 77.2443C99.3047 76.8537 99.3047 76.8537 99.4458 76.1725C99.4777 75.4346 99.4777 75.4346 99.1038 74.8765C98.5608 74.4234 98.2516 74.4029 97.6085 74.3492C96.9304 74.1574 96.5439 73.4734 96.1094 72.8577C96.0061 72.7194 95.9029 72.5811 95.7966 72.4387C95.5088 72.0512 95.2253 71.6617 94.9489 71.2626C94.8636 71.1524 94.7784 71.0423 94.6905 70.9288C94.2146 70.0053 94.3324 68.8279 94.3229 67.7664C94.3169 67.3281 94.2993 66.8917 94.2815 66.4539C94.237 64.4202 94.237 64.4202 94.7886 63.5572C95.2121 63.1419 95.6333 62.8108 96.1094 62.4894C96.3205 62.3259 96.5316 62.1623 96.7427 61.9988C96.9235 61.8728 97.1043 61.7469 97.2906 61.6171C97.6206 61.387 97.9473 61.1491 98.2645 60.8943C98.2645 60.7627 98.2645 60.6311 98.2645 60.4955C98.3579 60.4719 98.4512 60.4482 98.5474 60.4238C99.2952 60.1728 99.8945 59.7964 100.42 59.0998C100.619 58.2254 100.574 57.3852 100.538 56.4852C100.533 56.094 100.529 55.7029 100.526 55.3118C100.516 54.4893 100.493 53.6673 100.47 52.8452C100.371 49.2568 100.34 46.5352 102.409 43.7468C102.807 43.2105 102.807 43.2105 102.906 42.5505C103.057 42.534 103.207 42.5176 103.362 42.5007C103.986 42.3274 104.213 42.1966 104.564 41.5536C104.564 40.8005 104.529 40.3502 104.129 39.7591C103.55 39.466 103.173 39.5628 102.575 39.7591C102.216 40.0581 102.216 40.0581 102.078 40.5566C102.116 41.2187 102.161 41.755 102.409 42.3511C102.3 42.5362 102.19 42.7212 102.078 42.9119C101.702 43.5068 101.702 43.5068 101.746 44.1456C101.637 44.1456 101.527 44.1456 101.414 44.1456C101.208 44.5224 101.017 44.9111 100.834 45.3046C100.541 45.9291 100.253 46.5398 99.9224 47.1365C99.8972 47.7032 99.8909 48.2496 99.9004 48.8157C99.9017 48.9832 99.903 49.1508 99.9043 49.3234C99.9087 49.8573 99.9153 50.391 99.9224 50.9249C99.9373 52.1022 99.9468 53.2789 99.9426 54.4563C99.9429 54.7981 99.9463 55.1398 99.9525 55.4815C100.001 58.3321 100.001 58.3321 99.4242 59.2036C98.9963 59.5662 98.5728 59.8314 98.0988 60.0968C97.8539 60.2916 97.6121 60.4921 97.3741 60.6988C97.1494 60.8845 96.9247 61.0702 96.7 61.2557C96.5851 61.3507 96.4702 61.4457 96.3519 61.5435C94.9656 62.6888 94.9656 62.6888 94.4515 62.6888C94.4392 61.6637 94.4302 60.6387 94.4242 59.6135C94.4217 59.2652 94.4183 58.9169 94.414 58.5687C94.4079 58.0663 94.4051 57.564 94.4029 57.0615C94.4004 56.9074 94.3978 56.7532 94.3952 56.5944C94.3948 55.3041 94.6387 54.2241 95.3944 53.2552C95.8138 52.7868 95.8138 52.7868 95.7778 52.3206C95.8872 52.3206 95.9966 52.3206 96.1094 52.3206C96.6318 51.5229 96.6819 50.788 96.6857 49.808C96.6896 49.5931 96.6896 49.5931 96.6935 49.374C96.7014 48.9189 96.706 48.4639 96.7103 48.0088C96.7164 47.5523 96.7231 47.0958 96.7307 46.6393C96.7352 46.356 96.7387 46.0726 96.7412 45.7892C96.7492 45.1877 96.7788 44.721 96.9383 44.1456C97.0477 44.1456 97.1571 44.1456 97.2698 44.1456C97.2698 44.014 97.2698 43.8824 97.2698 43.7468C97.3793 43.7468 97.4887 43.7468 97.6014 43.7468C98.3847 42.6798 98.5425 41.979 98.4951 40.5823C98.493 40.2379 98.491 39.8935 98.4893 39.5491C98.4818 39.0149 98.4719 38.4811 98.4583 37.9471C98.4034 35.4981 98.6303 33.8434 99.7662 31.778C100.118 31.2477 100.118 31.2477 100.088 30.7865C100.242 30.7783 100.396 30.7701 100.554 30.7616C101.131 30.6492 101.131 30.6492 101.394 29.9765C101.486 29.6866 101.486 29.6866 101.58 29.3908C101.259 28.8332 101.036 28.4563 100.513 28.182C100.067 28.163 100.067 28.163 99.6115 28.4437C99.2138 28.9373 99.2138 28.9373 99.2852 29.45C99.3236 29.7168 99.3236 29.7168 99.3629 29.989C99.5495 31.4612 98.9455 32.4077 98.2645 33.578C97.7799 33.5132 97.5602 33.3404 97.1681 32.9769C96.6395 32.1815 96.6645 31.6573 96.6915 30.6705C96.6927 30.5081 96.6939 30.3458 96.6951 30.1785C96.6997 29.6624 96.7101 29.1467 96.7207 28.6306C96.7248 28.2798 96.7286 27.9289 96.732 27.578C96.7411 26.7199 96.7554 25.8621 96.7725 25.0042C96.8785 24.9426 96.9845 24.8809 97.0937 24.8173C97.425 24.6385 97.425 24.6385 97.6014 24.4061C97.6429 23.7165 97.6429 23.7165 97.6014 23.0103C97.2706 22.5262 97.2706 22.5262 96.6171 22.5493C96.2 22.5657 95.976 22.5914 95.6016 22.8234ZM102.741 54.3145C102.362 54.8741 102.362 54.8741 102.42 55.4983C102.525 56.1463 102.525 56.1463 102.992 56.4347C103.514 57.033 103.506 57.3455 103.523 58.1825C103.522 58.3485 103.522 58.5145 103.521 58.6855C103.524 58.8569 103.526 59.0284 103.529 59.2051C103.536 59.7516 103.537 60.2979 103.539 60.8445C103.542 61.2155 103.547 61.5865 103.551 61.9575C103.562 62.8659 103.567 63.7742 103.57 64.6827C103.471 64.7359 103.372 64.789 103.27 64.8438C102.899 65.0862 102.678 65.3245 102.392 65.6945C100.842 67.6187 100.842 67.6187 100.094 67.7787C99.6633 67.6985 99.6633 67.6985 99.269 67.5723C98.8943 67.422 98.8943 67.422 98.4303 67.7234C98.0645 68.0778 98.0645 68.0778 97.7672 68.6705C97.7943 69.3073 97.8965 69.611 98.2231 70.1161C98.6558 70.5209 98.8769 70.6487 99.425 70.6644C99.9665 70.48 99.9665 70.48 100.42 70.0662C100.64 69.4872 100.64 69.4872 100.751 68.8699C100.974 68.2354 101.255 67.817 101.663 67.3371C101.764 67.2171 101.865 67.097 101.969 66.9734C102.243 66.6766 102.243 66.6766 102.575 66.4772C102.575 66.3456 102.575 66.214 102.575 66.0784C102.667 66.0332 102.76 65.988 102.855 65.9414C103.376 65.5855 103.689 65.2489 104.067 64.6827C104.18 64.0886 104.167 63.5124 104.155 62.9054C104.156 62.7356 104.156 62.5658 104.157 62.3909C104.158 61.8504 104.155 61.3102 104.15 60.7697C104.143 60.0567 104.142 59.344 104.145 58.6309C104.141 58.4671 104.138 58.3032 104.135 58.1343C104.137 57.6725 104.137 57.6724 104.233 56.9065C104.644 56.5433 104.644 56.5433 105.062 56.3084C105.223 55.5321 105.273 55.0764 105.062 54.3145C104.111 53.6431 103.655 53.5532 102.741 54.3145ZM88.3797 60.3211C88.0978 61.0299 88.1166 61.3495 88.3175 62.0907C88.6377 62.604 89.0051 62.8109 89.478 63.0876C89.4769 63.2071 89.4759 63.3267 89.4748 63.4498C89.4734 63.9981 89.4808 64.5457 89.4884 65.094C89.4865 65.282 89.4847 65.47 89.4829 65.6637C89.5044 66.7235 89.5818 67.3234 90.2234 68.084C90.3278 68.1893 90.4321 68.2945 90.5397 68.4029C90.8043 68.6705 90.8043 68.6705 90.9701 69.0693C91.0795 69.0693 91.1889 69.0693 91.3016 69.0693C91.432 69.6237 91.4877 70.114 91.4862 70.6895C91.4862 70.8491 91.4862 71.0088 91.4862 71.1732C91.4853 71.3435 91.4845 71.5139 91.4836 71.6894C91.4834 71.8653 91.4831 72.0412 91.4829 72.2224C91.482 72.7831 91.4799 73.3438 91.4778 73.9045C91.4769 74.2851 91.4762 74.6657 91.4755 75.0463C91.4737 75.9783 91.4708 76.9104 91.4674 77.8424C91.1706 78.027 90.8738 78.2116 90.577 78.3962C90.2404 78.6486 90.2404 78.6486 90.1411 79.3503C90.1111 80.0324 90.1111 80.0324 90.3069 80.6339C90.7718 81.0812 91.0337 81.232 91.6332 81.232C92.2717 80.9761 92.5619 80.6877 92.9595 80.0357C93.0004 79.417 93.0004 79.417 92.7937 78.8394C92.6824 78.7363 92.571 78.6332 92.4563 78.527C91.9483 77.7704 92.0401 77.0173 92.047 76.0728C92.0454 75.8811 92.0439 75.6894 92.0423 75.4919C92.0375 74.8796 92.037 74.2675 92.0373 73.6552C92.0367 73.043 92.0351 72.4308 92.0305 71.8186C92.0277 71.4378 92.0273 71.057 92.0294 70.6762C92.027 69.6711 92.027 69.6711 91.733 68.7468C91.484 68.4277 91.484 68.4277 91.1358 68.4711C91.1358 68.3395 91.1358 68.2079 91.1358 68.0723C91.0264 68.0723 90.917 68.0723 90.8043 68.0723C90.753 67.9449 90.7017 67.8174 90.6489 67.686C90.5001 67.2875 90.5001 67.2875 90.3069 67.0754C90.2809 66.7499 90.2653 66.4231 90.2545 66.0964C90.2475 65.8991 90.2406 65.7018 90.2334 65.4986C90.2269 65.291 90.2204 65.0835 90.2137 64.8696C90.2065 64.6613 90.1994 64.453 90.192 64.2384C90.1743 63.7219 90.1574 63.2054 90.1411 62.6888C90.2476 62.6369 90.354 62.585 90.4636 62.5315C90.8707 62.3079 90.8707 62.3079 90.9493 61.6171C90.969 60.9302 90.969 60.6408 90.6385 60.0968C89.8824 59.6421 89.0283 59.6896 88.3797 60.3211Z"/>
</mask>
<path d="M90.5376 16.6051C90.7298 16.6062 90.7298 16.6062 90.9257 16.6072C91.1271 16.6072 91.1271 16.6072 91.3325 16.6072C91.7783 16.6073 92.2242 16.6089 92.67 16.6104C92.9783 16.6108 93.2865 16.6111 93.5948 16.6113C94.4078 16.612 95.2208 16.614 96.0338 16.6162C96.8628 16.6182 97.6917 16.6191 98.5207 16.6201C100.148 16.6223 101.776 16.6258 103.404 16.6299C103.404 17.7485 103.404 18.867 103.404 20.0195C103.842 20.0195 104.279 20.0195 104.73 20.0195C104.896 20.2189 104.896 20.2189 104.916 20.5684C104.915 20.7202 104.915 20.8721 104.915 21.0286C104.915 21.286 104.915 21.286 104.915 21.5487C104.914 21.7352 104.913 21.9217 104.912 22.1139C104.912 22.3039 104.912 22.4939 104.911 22.6897C104.91 23.2992 104.908 23.9087 104.906 24.5182C104.905 24.9304 104.905 25.3425 104.904 25.7547C104.902 26.7673 104.899 27.78 104.896 28.7926C105.178 28.7865 105.178 28.7865 105.466 28.7802C106.056 28.7926 106.056 28.7926 106.222 28.992C106.234 29.3282 106.236 29.665 106.233 30.0014C106.231 30.1847 106.23 30.368 106.228 30.5568C106.226 30.6984 106.224 30.84 106.222 30.9859C105.894 30.9859 105.566 30.9859 105.227 30.9859C105.271 31.9222 105.315 32.8585 105.36 33.7947C105.375 34.1126 105.39 34.4305 105.405 34.7484C105.426 35.2078 105.448 35.6671 105.47 36.1264C105.477 36.2665 105.483 36.4065 105.49 36.5508C105.528 37.3449 105.597 38.1252 105.684 38.9143C105.771 39.8611 105.802 40.8136 105.844 41.7646C105.86 42.1067 105.86 42.1067 105.876 42.4557C105.909 43.181 105.941 43.9063 105.973 44.6316C106.016 45.5868 106.059 46.542 106.103 47.4971C106.113 47.714 106.122 47.9308 106.132 48.1543C106.179 49.1993 106.246 50.2341 106.348 51.2732C106.426 52.1509 106.461 53.0323 106.501 53.9134C106.511 54.1217 106.521 54.3301 106.531 54.5447C106.563 55.2198 106.595 55.8949 106.626 56.5701C106.648 57.0364 106.67 57.5028 106.693 57.9692C106.793 60.0817 106.891 62.1944 106.986 64.3073C106.997 64.5561 106.997 64.5561 107.008 64.81C107.043 65.5681 107.077 66.3263 107.11 67.0846C107.122 67.3523 107.134 67.62 107.146 67.8878C107.155 68.1131 107.165 68.3384 107.176 68.5706C107.206 69.0863 107.246 69.5928 107.296 70.1057C107.401 71.2042 107.455 72.3047 107.508 73.4083C107.518 73.6293 107.529 73.8503 107.54 74.078C107.563 74.5436 107.585 75.0093 107.608 75.475C107.641 76.1794 107.676 76.8838 107.711 77.5881C107.733 78.0434 107.755 78.4986 107.777 78.9539C107.787 79.1606 107.798 79.3674 107.808 79.5804C107.881 81.1356 107.88 82.6583 107.88 84.2229C100.494 84.2229 92.711 84.2229 85.1016 84.2229C85.1016 76.048 85.4992 76.0479 85.665 74.2534C85.684 73.9255 85.7003 73.5973 85.7116 73.2689C85.7178 73.1029 85.724 72.9368 85.7304 72.7658C85.739 72.5152 85.739 72.5152 85.7479 72.2595C85.7811 71.2963 85.8179 70.3399 85.9137 69.3824C86.0351 68.1519 86.0592 66.9164 86.0969 65.6789C86.1031 65.4936 86.1093 65.3083 86.1157 65.1173C86.1207 64.9523 86.1257 64.7872 86.1309 64.6172C86.1623 64.0846 86.1623 64.0845 86.2423 63.4425C86.3253 62.7137 86.3724 61.9973 86.4059 61.263C86.4122 61.1285 86.4185 60.994 86.4249 60.8555C86.4454 60.4149 86.4651 59.9743 86.4848 59.5336C86.4992 59.2212 86.5136 58.9087 86.5281 58.5962C86.5653 57.7904 86.602 56.9846 86.6384 56.1787C86.6713 55.454 86.7046 54.7294 86.7379 54.0048C86.7442 53.868 86.7504 53.7313 86.7569 53.5904C86.7759 53.1783 86.7948 52.7662 86.8138 52.3541C86.8201 52.2169 86.8264 52.0796 86.8329 51.9382C87.1549 44.9476 87.5277 37.9659 87.9859 30.9859C87.603 30.9859 87.22 30.9859 86.8255 30.9859C86.8255 30.2621 86.8255 29.5383 86.8255 28.7926C87.2631 28.7926 87.7008 28.7926 88.1517 28.7926C88.139 28.6869 88.1264 28.5811 88.1133 28.4721C87.958 26.9588 87.9895 25.4635 88.0352 23.9442C88.0483 23.5042 88.0593 23.0641 88.0701 22.624C88.1288 20.4734 88.1288 20.4734 88.3175 20.0195C88.7005 20.0195 89.0834 20.0195 89.478 20.0195C89.4761 19.7915 89.4742 19.5635 89.4722 19.3286C89.4706 19.0314 89.4691 18.7341 89.4676 18.4368C89.4663 18.2864 89.4649 18.1359 89.4634 17.9808C89.462 17.5969 89.4693 17.213 89.478 16.8293C89.7689 16.4795 90.1503 16.606 90.5376 16.6051ZM95.6016 22.8234C95.3496 23.45 95.4826 23.9469 95.612 24.6055C95.7214 24.7371 95.8308 24.8687 95.9436 25.0042C96.1297 26.2215 96.1201 27.4628 96.0673 28.6945C96.0592 28.9117 96.0512 29.1289 96.043 29.3526C96.025 29.7954 96.0012 30.2379 95.9717 30.6798C95.9525 31.3654 95.9607 31.9173 96.1094 32.581C96.4791 33.063 96.4791 33.063 96.9363 33.4907C97.5168 34.1042 97.8106 34.531 97.909 35.4456C97.9628 36.4781 97.9282 37.5053 97.8915 38.5378C97.8861 38.8966 97.8813 39.2554 97.8773 39.6142C97.8291 42.4311 97.8291 42.4311 97.4356 43.1487C97.3262 43.1487 97.2168 43.1487 97.1041 43.1487C97.1041 43.2803 97.1041 43.4119 97.1041 43.5474C96.9946 43.5474 96.8852 43.5474 96.7725 43.5474C96.7725 43.679 96.7725 43.8106 96.7725 43.9462C95.874 43.4358 95.3578 42.5653 94.752 41.6532C94.6478 41.4993 94.5436 41.3453 94.4363 41.1867C94.0337 40.5891 93.646 40.0007 93.291 39.3603C93.1816 39.3603 93.0722 39.3603 92.9595 39.3603C92.9595 36.0046 92.9595 32.6488 92.9595 29.1914C93.1783 29.0598 93.3971 28.9282 93.6226 28.7926C93.6966 27.9351 93.6966 27.9351 93.3636 27.21C92.7897 26.9091 92.3982 27.024 91.799 27.1975C91.4238 27.5703 91.4238 27.5703 91.3949 28.1571C91.4106 28.8315 91.4106 28.8315 91.8827 29.1992C92.4911 30.0676 92.388 30.7976 92.3553 31.8964C92.3523 32.3184 92.3496 32.7404 92.3472 33.1625C92.3386 33.8237 92.3275 34.4845 92.3117 35.1455C92.1616 38.18 92.1616 38.18 93.2476 40.7856C93.532 41.1162 93.8221 41.44 94.1199 41.7529C94.2835 41.979 94.4436 42.2089 94.5966 42.4454C94.8347 42.7944 95.0731 43.1434 95.3115 43.4921C95.9181 44.4088 95.9572 44.6592 96.1094 45.9401C94.6869 45.9401 93.2645 45.9401 91.799 45.9401C91.6896 45.6111 91.5801 45.2821 91.4674 44.9432C91.0686 44.4635 90.859 44.424 90.3069 44.345C89.9369 44.4185 89.9369 44.4185 89.6438 44.5444C89.6438 44.676 89.6438 44.8076 89.6438 44.9432C89.5344 44.9432 89.425 44.9432 89.3122 44.9432C89.0857 45.5939 88.9523 45.9897 89.0843 46.6878C89.3519 47.2146 89.487 47.3558 89.9754 47.5352C90.4657 47.635 90.4657 47.635 90.9701 47.5352C91.0962 47.4046 91.2223 47.274 91.3523 47.1394C91.8858 46.6596 92.1641 46.6318 92.8228 46.6162C93.0146 46.6097 93.2064 46.6033 93.404 46.5967C93.6027 46.5939 93.8013 46.591 94.006 46.5881C94.3087 46.5793 94.3087 46.5793 94.6176 46.5702C95.1149 46.5562 95.612 46.5456 96.1094 46.5383C96.1774 51.3003 96.1774 51.3004 95.3219 52.5324C95.0878 52.7951 94.8529 53.0568 94.6173 53.3175C93.9178 54.2638 93.6656 55.0368 93.6806 56.3163C93.6791 56.4702 93.6777 56.6241 93.6762 56.7826C93.6729 57.288 93.6758 57.793 93.6796 58.2984C93.6802 58.6527 93.6808 59.0071 93.6812 59.3615C93.6833 60.1035 93.6888 60.8454 93.6965 61.5874C93.7057 62.5326 93.7027 63.4771 93.6966 64.4223C93.6938 65.1544 93.6993 65.8862 93.7071 66.6183C93.7094 66.9663 93.7089 67.3144 93.7053 67.6625C93.6894 69.5257 93.741 70.8707 94.8605 72.2551C95.1604 72.5976 95.4683 72.9262 95.7778 73.2565C95.8872 73.4539 95.9966 73.6513 96.1094 73.8546C96.2188 73.8546 96.3282 73.8546 96.4409 73.8546C96.7448 74.7576 96.7642 75.3005 96.6067 76.2473C96.6888 76.5434 96.6888 76.5434 96.7725 76.8455C96.8819 76.8455 96.9913 76.8455 97.1041 76.8455C97.1041 76.9771 97.1041 77.1087 97.1041 77.2443C98.0221 77.4595 98.0221 77.4595 98.9173 77.2443C99.3047 76.8537 99.3047 76.8537 99.4458 76.1725C99.4777 75.4346 99.4777 75.4346 99.1038 74.8765C98.5608 74.4234 98.2516 74.4029 97.6085 74.3492C96.9304 74.1574 96.5439 73.4734 96.1094 72.8577C96.0061 72.7194 95.9029 72.5811 95.7966 72.4387C95.5088 72.0512 95.2253 71.6617 94.9489 71.2626C94.8636 71.1524 94.7784 71.0423 94.6905 70.9288C94.2146 70.0053 94.3324 68.8279 94.3229 67.7664C94.3169 67.3281 94.2993 66.8917 94.2815 66.4539C94.237 64.4202 94.237 64.4202 94.7886 63.5572C95.2121 63.1419 95.6333 62.8108 96.1094 62.4894C96.3205 62.3259 96.5316 62.1623 96.7427 61.9988C96.9235 61.8728 97.1043 61.7469 97.2906 61.6171C97.6206 61.387 97.9473 61.1491 98.2645 60.8943C98.2645 60.7627 98.2645 60.6311 98.2645 60.4955C98.3579 60.4719 98.4512 60.4482 98.5474 60.4238C99.2952 60.1728 99.8945 59.7964 100.42 59.0998C100.619 58.2254 100.574 57.3852 100.538 56.4852C100.533 56.094 100.529 55.7029 100.526 55.3118C100.516 54.4893 100.493 53.6673 100.47 52.8452C100.371 49.2568 100.34 46.5352 102.409 43.7468C102.807 43.2105 102.807 43.2105 102.906 42.5505C103.057 42.534 103.207 42.5176 103.362 42.5007C103.986 42.3274 104.213 42.1966 104.564 41.5536C104.564 40.8005 104.529 40.3502 104.129 39.7591C103.55 39.466 103.173 39.5628 102.575 39.7591C102.216 40.0581 102.216 40.0581 102.078 40.5566C102.116 41.2187 102.161 41.755 102.409 42.3511C102.3 42.5362 102.19 42.7212 102.078 42.9119C101.702 43.5068 101.702 43.5068 101.746 44.1456C101.637 44.1456 101.527 44.1456 101.414 44.1456C101.208 44.5224 101.017 44.9111 100.834 45.3046C100.541 45.9291 100.253 46.5398 99.9224 47.1365C99.8972 47.7032 99.8909 48.2496 99.9004 48.8157C99.9017 48.9832 99.903 49.1508 99.9043 49.3234C99.9087 49.8573 99.9153 50.391 99.9224 50.9249C99.9373 52.1022 99.9468 53.2789 99.9426 54.4563C99.9429 54.7981 99.9463 55.1398 99.9525 55.4815C100.001 58.3321 100.001 58.3321 99.4242 59.2036C98.9963 59.5662 98.5728 59.8314 98.0988 60.0968C97.8539 60.2916 97.6121 60.4921 97.3741 60.6988C97.1494 60.8845 96.9247 61.0702 96.7 61.2557C96.5851 61.3507 96.4702 61.4457 96.3519 61.5435C94.9656 62.6888 94.9656 62.6888 94.4515 62.6888C94.4392 61.6637 94.4302 60.6387 94.4242 59.6135C94.4217 59.2652 94.4183 58.9169 94.414 58.5687C94.4079 58.0663 94.4051 57.564 94.4029 57.0615C94.4004 56.9074 94.3978 56.7532 94.3952 56.5944C94.3948 55.3041 94.6387 54.2241 95.3944 53.2552C95.8138 52.7868 95.8138 52.7868 95.7778 52.3206C95.8872 52.3206 95.9966 52.3206 96.1094 52.3206C96.6318 51.5229 96.6819 50.788 96.6857 49.808C96.6896 49.5931 96.6896 49.5931 96.6935 49.374C96.7014 48.9189 96.706 48.4639 96.7103 48.0088C96.7164 47.5523 96.7231 47.0958 96.7307 46.6393C96.7352 46.356 96.7387 46.0726 96.7412 45.7892C96.7492 45.1877 96.7788 44.721 96.9383 44.1456C97.0477 44.1456 97.1571 44.1456 97.2698 44.1456C97.2698 44.014 97.2698 43.8824 97.2698 43.7468C97.3793 43.7468 97.4887 43.7468 97.6014 43.7468C98.3847 42.6798 98.5425 41.979 98.4951 40.5823C98.493 40.2379 98.491 39.8935 98.4893 39.5491C98.4818 39.0149 98.4719 38.4811 98.4583 37.9471C98.4034 35.4981 98.6303 33.8434 99.7662 31.778C100.118 31.2477 100.118 31.2477 100.088 30.7865C100.242 30.7783 100.396 30.7701 100.554 30.7616C101.131 30.6492 101.131 30.6492 101.394 29.9765C101.486 29.6866 101.486 29.6866 101.58 29.3908C101.259 28.8332 101.036 28.4563 100.513 28.182C100.067 28.163 100.067 28.163 99.6115 28.4437C99.2138 28.9373 99.2138 28.9373 99.2852 29.45C99.3236 29.7168 99.3236 29.7168 99.3629 29.989C99.5495 31.4612 98.9455 32.4077 98.2645 33.578C97.7799 33.5132 97.5602 33.3404 97.1681 32.9769C96.6395 32.1815 96.6645 31.6573 96.6915 30.6705C96.6927 30.5081 96.6939 30.3458 96.6951 30.1785C96.6997 29.6624 96.7101 29.1467 96.7207 28.6306C96.7248 28.2798 96.7286 27.9289 96.732 27.578C96.7411 26.7199 96.7554 25.8621 96.7725 25.0042C96.8785 24.9426 96.9845 24.8809 97.0937 24.8173C97.425 24.6385 97.425 24.6385 97.6014 24.4061C97.6429 23.7165 97.6429 23.7165 97.6014 23.0103C97.2706 22.5262 97.2706 22.5262 96.6171 22.5493C96.2 22.5657 95.976 22.5914 95.6016 22.8234ZM102.741 54.3145C102.362 54.8741 102.362 54.8741 102.42 55.4983C102.525 56.1463 102.525 56.1463 102.992 56.4347C103.514 57.033 103.506 57.3455 103.523 58.1825C103.522 58.3485 103.522 58.5145 103.521 58.6855C103.524 58.8569 103.526 59.0284 103.529 59.2051C103.536 59.7516 103.537 60.2979 103.539 60.8445C103.542 61.2155 103.547 61.5865 103.551 61.9575C103.562 62.8659 103.567 63.7742 103.57 64.6827C103.471 64.7359 103.372 64.789 103.27 64.8438C102.899 65.0862 102.678 65.3245 102.392 65.6945C100.842 67.6187 100.842 67.6187 100.094 67.7787C99.6633 67.6985 99.6633 67.6985 99.269 67.5723C98.8943 67.422 98.8943 67.422 98.4303 67.7234C98.0645 68.0778 98.0645 68.0778 97.7672 68.6705C97.7943 69.3073 97.8965 69.611 98.2231 70.1161C98.6558 70.5209 98.8769 70.6487 99.425 70.6644C99.9665 70.48 99.9665 70.48 100.42 70.0662C100.64 69.4872 100.64 69.4872 100.751 68.8699C100.974 68.2354 101.255 67.817 101.663 67.3371C101.764 67.2171 101.865 67.097 101.969 66.9734C102.243 66.6766 102.243 66.6766 102.575 66.4772C102.575 66.3456 102.575 66.214 102.575 66.0784C102.667 66.0332 102.76 65.988 102.855 65.9414C103.376 65.5855 103.689 65.2489 104.067 64.6827C104.18 64.0886 104.167 63.5124 104.155 62.9054C104.156 62.7356 104.156 62.5658 104.157 62.3909C104.158 61.8504 104.155 61.3102 104.15 60.7697C104.143 60.0567 104.142 59.344 104.145 58.6309C104.141 58.4671 104.138 58.3032 104.135 58.1343C104.137 57.6725 104.137 57.6724 104.233 56.9065C104.644 56.5433 104.644 56.5433 105.062 56.3084C105.223 55.5321 105.273 55.0764 105.062 54.3145C104.111 53.6431 103.655 53.5532 102.741 54.3145ZM88.3797 60.3211C88.0978 61.0299 88.1166 61.3495 88.3175 62.0907C88.6377 62.604 89.0051 62.8109 89.478 63.0876C89.4769 63.2071 89.4759 63.3267 89.4748 63.4498C89.4734 63.9981 89.4808 64.5457 89.4884 65.094C89.4865 65.282 89.4847 65.47 89.4829 65.6637C89.5044 66.7235 89.5818 67.3234 90.2234 68.084C90.3278 68.1893 90.4321 68.2945 90.5397 68.4029C90.8043 68.6705 90.8043 68.6705 90.9701 69.0693C91.0795 69.0693 91.1889 69.0693 91.3016 69.0693C91.432 69.6237 91.4877 70.114 91.4862 70.6895C91.4862 70.8491 91.4862 71.0088 91.4862 71.1732C91.4853 71.3435 91.4845 71.5139 91.4836 71.6894C91.4834 71.8653 91.4831 72.0412 91.4829 72.2224C91.482 72.7831 91.4799 73.3438 91.4778 73.9045C91.4769 74.2851 91.4762 74.6657 91.4755 75.0463C91.4737 75.9783 91.4708 76.9104 91.4674 77.8424C91.1706 78.027 90.8738 78.2116 90.577 78.3962C90.2404 78.6486 90.2404 78.6486 90.1411 79.3503C90.1111 80.0324 90.1111 80.0324 90.3069 80.6339C90.7718 81.0812 91.0337 81.232 91.6332 81.232C92.2717 80.9761 92.5619 80.6877 92.9595 80.0357C93.0004 79.417 93.0004 79.417 92.7937 78.8394C92.6824 78.7363 92.571 78.6332 92.4563 78.527C91.9483 77.7704 92.0401 77.0173 92.047 76.0728C92.0454 75.8811 92.0439 75.6894 92.0423 75.4919C92.0375 74.8796 92.037 74.2675 92.0373 73.6552C92.0367 73.043 92.0351 72.4308 92.0305 71.8186C92.0277 71.4378 92.0273 71.057 92.0294 70.6762C92.027 69.6711 92.027 69.6711 91.733 68.7468C91.484 68.4277 91.484 68.4277 91.1358 68.4711C91.1358 68.3395 91.1358 68.2079 91.1358 68.0723C91.0264 68.0723 90.917 68.0723 90.8043 68.0723C90.753 67.9449 90.7017 67.8174 90.6489 67.686C90.5001 67.2875 90.5001 67.2875 90.3069 67.0754C90.2809 66.7499 90.2653 66.4231 90.2545 66.0964C90.2475 65.8991 90.2406 65.7018 90.2334 65.4986C90.2269 65.291 90.2204 65.0835 90.2137 64.8696C90.2065 64.6613 90.1994 64.453 90.192 64.2384C90.1743 63.7219 90.1574 63.2054 90.1411 62.6888C90.2476 62.6369 90.354 62.585 90.4636 62.5315C90.8707 62.3079 90.8707 62.3079 90.9493 61.6171C90.969 60.9302 90.969 60.6408 90.6385 60.0968C89.8824 59.6421 89.0283 59.6896 88.3797 60.3211Z" fill="white" stroke="white" stroke-width="3" mask="url(#path-2-inside-1_77_53)"/>
<path d="M92.8887 11.1213V16.6998H100.327V11.1213L101.779 14.3754L101.489 8.79692L100.094 7.86717V5.77524C99.1644 5.27162 97.2817 4.2179 97.1888 4.03195C97.0958 3.846 96.9951 1.94001 96.9563 1.01026L96.3752 0.31295L95.9104 1.01026C95.8716 1.90127 95.7709 3.75303 95.6779 4.03195C95.585 4.31088 93.7797 5.31036 92.8887 5.77524V7.63474L91.4941 9.02936V14.3754L92.8887 11.1213Z" fill="white" stroke="white" stroke-width="0.375"/>
<path d="M98.3498 15.7701H94.6309V12.6322C94.8633 11.9349 95.5606 10.5402 96.4903 10.5402C97.4201 10.5402 98.1174 11.9349 98.3498 12.6322V15.7701Z" fill="#2DBADC" stroke="white" stroke-width="0.375"/>
<path d="M16.5196 84.223H3.75L37.1271 2.86983H49.3684L83.0097 84.223H69.7998L43.1157 17.9575L27.7921 56.1052H46.8144C46.8144 56.1052 50.2754 55.7494 53.6069 59.3522C56.9385 62.955 56.5898 65.7064 56.5898 65.7064H23.9172L16.5196 84.223Z" fill="white"/>
</svg>
