<svg width="105" height="85" viewBox="0 0 105 85" fill="none" xmlns="http://www.w3.org/2000/svg">
<mask id="path-1-inside-1_77_56" fill="white">
<path d="M86.7876 16.6051C86.9798 16.6062 86.9798 16.6062 87.1757 16.6072C87.3771 16.6072 87.3771 16.6072 87.5825 16.6072C88.0283 16.6073 88.4742 16.6089 88.92 16.6104C89.2283 16.6108 89.5365 16.6111 89.8448 16.6113C90.6578 16.612 91.4708 16.614 92.2838 16.6162C93.1128 16.6182 93.9417 16.6191 94.7707 16.6201C96.3984 16.6223 98.0261 16.6258 99.6538 16.6299C99.6538 17.7485 99.6538 18.867 99.6538 20.0195C100.092 20.0195 100.529 20.0195 100.98 20.0195C101.146 20.2189 101.146 20.2189 101.166 20.5684C101.165 20.7202 101.165 20.8721 101.165 21.0286C101.165 21.286 101.165 21.286 101.165 21.5487C101.164 21.7352 101.163 21.9217 101.162 22.1139C101.162 22.3039 101.162 22.4939 101.161 22.6897C101.16 23.2992 101.158 23.9087 101.156 24.5182C101.155 24.9304 101.155 25.3425 101.154 25.7547C101.152 26.7673 101.149 27.78 101.146 28.7926C101.428 28.7865 101.428 28.7865 101.716 28.7802C102.306 28.7926 102.306 28.7926 102.472 28.992C102.484 29.3282 102.486 29.665 102.483 30.0014C102.481 30.1847 102.48 30.368 102.478 30.5568C102.476 30.6984 102.474 30.84 102.472 30.9859C102.144 30.9859 101.816 30.9859 101.477 30.9859C101.521 31.9222 101.565 32.8585 101.61 33.7947C101.625 34.1126 101.64 34.4305 101.655 34.7484C101.676 35.2078 101.698 35.6671 101.72 36.1264C101.727 36.2665 101.733 36.4065 101.74 36.5508C101.778 37.3449 101.847 38.1252 101.934 38.9143C102.021 39.8611 102.052 40.8136 102.094 41.7646C102.11 42.1067 102.11 42.1067 102.126 42.4557C102.159 43.181 102.191 43.9063 102.223 44.6316C102.266 45.5868 102.309 46.542 102.353 47.4971C102.363 47.714 102.372 47.9308 102.382 48.1543C102.429 49.1993 102.496 50.2341 102.598 51.2732C102.676 52.1509 102.711 53.0323 102.751 53.9134C102.761 54.1217 102.771 54.3301 102.781 54.5447C102.813 55.2198 102.845 55.8949 102.876 56.5701C102.898 57.0364 102.92 57.5028 102.943 57.9692C103.043 60.0817 103.141 62.1944 103.236 64.3073C103.247 64.5561 103.247 64.5561 103.258 64.81C103.293 65.5681 103.327 66.3263 103.36 67.0846C103.372 67.3523 103.384 67.62 103.396 67.8878C103.405 68.1131 103.415 68.3384 103.426 68.5706C103.456 69.0863 103.496 69.5928 103.546 70.1057C103.651 71.2042 103.705 72.3047 103.758 73.4083C103.768 73.6293 103.779 73.8503 103.79 74.078C103.813 74.5436 103.835 75.0093 103.858 75.475C103.891 76.1794 103.926 76.8838 103.961 77.5881C103.983 78.0434 104.005 78.4986 104.027 78.9539C104.037 79.1606 104.048 79.3674 104.058 79.5804C104.131 81.1356 104.13 82.6583 104.13 84.2229C96.7443 84.2229 88.961 84.2229 81.3516 84.2229C81.3516 76.048 81.7492 76.0479 81.915 74.2534C81.934 73.9255 81.9503 73.5973 81.9616 73.2689C81.9678 73.1029 81.974 72.9368 81.9804 72.7658C81.989 72.5152 81.989 72.5152 81.9979 72.2595C82.0311 71.2963 82.0679 70.3399 82.1637 69.3824C82.2851 68.1519 82.3092 66.9164 82.3469 65.6789C82.3531 65.4936 82.3593 65.3083 82.3657 65.1173C82.3707 64.9523 82.3757 64.7872 82.3809 64.6172C82.4123 64.0846 82.4123 64.0845 82.4923 63.4425C82.5753 62.7137 82.6224 61.9973 82.6559 61.263C82.6622 61.1285 82.6685 60.994 82.6749 60.8555C82.6954 60.4149 82.7151 59.9743 82.7348 59.5336C82.7492 59.2212 82.7636 58.9087 82.7781 58.5962C82.8153 57.7904 82.852 56.9846 82.8884 56.1787C82.9213 55.454 82.9546 54.7294 82.9879 54.0048C82.9942 53.868 83.0004 53.7313 83.0069 53.5904C83.0259 53.1783 83.0448 52.7662 83.0638 52.3541C83.0701 52.2169 83.0764 52.0796 83.0829 51.9382C83.4049 44.9476 83.7777 37.9659 84.2359 30.9859C83.853 30.9859 83.47 30.9859 83.0755 30.9859C83.0755 30.2621 83.0755 29.5383 83.0755 28.7926C83.5131 28.7926 83.9508 28.7926 84.4017 28.7926C84.389 28.6869 84.3764 28.5811 84.3633 28.4721C84.208 26.9588 84.2395 25.4635 84.2852 23.9442C84.2983 23.5042 84.3093 23.0641 84.3201 22.624C84.3788 20.4734 84.3788 20.4734 84.5675 20.0195C84.9505 20.0195 85.3334 20.0195 85.728 20.0195C85.7261 19.7915 85.7242 19.5635 85.7222 19.3286C85.7206 19.0314 85.7191 18.7341 85.7176 18.4368C85.7163 18.2864 85.7149 18.1359 85.7134 17.9808C85.712 17.5969 85.7193 17.213 85.728 16.8293C86.0189 16.4795 86.4003 16.606 86.7876 16.6051ZM91.8516 22.8234C91.5996 23.45 91.7326 23.9469 91.862 24.6055C91.9714 24.7371 92.0808 24.8687 92.1936 25.0042C92.3797 26.2215 92.3701 27.4628 92.3173 28.6945C92.3092 28.9117 92.3012 29.1289 92.293 29.3526C92.275 29.7954 92.2512 30.2379 92.2217 30.6798C92.2025 31.3654 92.2107 31.9173 92.3594 32.581C92.7291 33.063 92.7291 33.063 93.1863 33.4907C93.7668 34.1042 94.0606 34.531 94.159 35.4456C94.2128 36.4781 94.1782 37.5053 94.1415 38.5378C94.1361 38.8966 94.1313 39.2554 94.1273 39.6142C94.0791 42.4311 94.0791 42.4311 93.6856 43.1487C93.5762 43.1487 93.4668 43.1487 93.3541 43.1487C93.3541 43.2803 93.3541 43.4119 93.3541 43.5474C93.2446 43.5474 93.1352 43.5474 93.0225 43.5474C93.0225 43.679 93.0225 43.8106 93.0225 43.9462C92.124 43.4358 91.6078 42.5653 91.002 41.6532C90.8978 41.4993 90.7936 41.3453 90.6863 41.1867C90.2837 40.5891 89.896 40.0007 89.541 39.3603C89.4316 39.3603 89.3222 39.3603 89.2095 39.3603C89.2095 36.0046 89.2095 32.6488 89.2095 29.1914C89.4283 29.0598 89.6471 28.9282 89.8726 28.7926C89.9466 27.9351 89.9466 27.9351 89.6136 27.21C89.0397 26.9091 88.6482 27.024 88.049 27.1975C87.6738 27.5703 87.6738 27.5703 87.6449 28.1571C87.6606 28.8315 87.6606 28.8315 88.1327 29.1992C88.7411 30.0676 88.638 30.7976 88.6053 31.8964C88.6023 32.3184 88.5996 32.7404 88.5972 33.1625C88.5886 33.8237 88.5775 34.4845 88.5617 35.1455C88.4116 38.18 88.4116 38.18 89.4976 40.7856C89.782 41.1162 90.0721 41.44 90.3699 41.7529C90.5335 41.979 90.6936 42.2089 90.8466 42.4454C91.0847 42.7944 91.3231 43.1434 91.5615 43.4921C92.1681 44.4088 92.2072 44.6592 92.3594 45.9401C90.9369 45.9401 89.5145 45.9401 88.049 45.9401C87.9396 45.6111 87.8301 45.2821 87.7174 44.9432C87.3186 44.4635 87.109 44.424 86.5569 44.345C86.1869 44.4185 86.1869 44.4185 85.8938 44.5444C85.8938 44.676 85.8938 44.8076 85.8938 44.9432C85.7844 44.9432 85.675 44.9432 85.5622 44.9432C85.3357 45.5939 85.2023 45.9897 85.3343 46.6878C85.6019 47.2146 85.737 47.3558 86.2254 47.5352C86.7157 47.635 86.7157 47.635 87.2201 47.5352C87.3462 47.4046 87.4723 47.274 87.6023 47.1394C88.1358 46.6596 88.4141 46.6318 89.0728 46.6162C89.2646 46.6097 89.4564 46.6033 89.654 46.5967C89.8527 46.5939 90.0513 46.591 90.256 46.5881C90.5587 46.5793 90.5587 46.5793 90.8676 46.5702C91.3649 46.5562 91.862 46.5456 92.3594 46.5383C92.4274 51.3003 92.4274 51.3004 91.5719 52.5324C91.3378 52.7951 91.1029 53.0568 90.8673 53.3175C90.1678 54.2638 89.9156 55.0368 89.9306 56.3163C89.9291 56.4702 89.9277 56.6241 89.9262 56.7826C89.9229 57.288 89.9258 57.793 89.9296 58.2984C89.9302 58.6527 89.9308 59.0071 89.9312 59.3615C89.9333 60.1035 89.9388 60.8454 89.9465 61.5874C89.9557 62.5326 89.9527 63.4771 89.9466 64.4223C89.9438 65.1544 89.9493 65.8862 89.9571 66.6183C89.9594 66.9663 89.9589 67.3144 89.9553 67.6625C89.9394 69.5257 89.991 70.8707 91.1105 72.2551C91.4104 72.5976 91.7183 72.9262 92.0278 73.2565C92.1372 73.4539 92.2466 73.6513 92.3594 73.8546C92.4688 73.8546 92.5782 73.8546 92.6909 73.8546C92.9948 74.7576 93.0142 75.3005 92.8567 76.2473C92.9388 76.5434 92.9388 76.5434 93.0225 76.8455C93.1319 76.8455 93.2413 76.8455 93.3541 76.8455C93.3541 76.9771 93.3541 77.1087 93.3541 77.2443C94.2721 77.4595 94.2721 77.4595 95.1673 77.2443C95.5547 76.8537 95.5547 76.8537 95.6958 76.1725C95.7277 75.4346 95.7277 75.4346 95.3538 74.8765C94.8108 74.4234 94.5016 74.4029 93.8585 74.3492C93.1804 74.1574 92.7939 73.4734 92.3594 72.8577C92.2561 72.7194 92.1529 72.5811 92.0466 72.4387C91.7588 72.0512 91.4753 71.6617 91.1989 71.2626C91.1136 71.1524 91.0284 71.0423 90.9405 70.9288C90.4646 70.0053 90.5824 68.8279 90.5729 67.7664C90.5669 67.3281 90.5493 66.8917 90.5315 66.4539C90.487 64.4202 90.487 64.4202 91.0386 63.5572C91.4621 63.1419 91.8833 62.8108 92.3594 62.4894C92.5705 62.3259 92.7816 62.1623 92.9927 61.9988C93.1735 61.8728 93.3543 61.7469 93.5406 61.6171C93.8706 61.387 94.1973 61.1491 94.5145 60.8943C94.5145 60.7627 94.5145 60.6311 94.5145 60.4955C94.6079 60.4719 94.7012 60.4482 94.7974 60.4238C95.5452 60.1728 96.1445 59.7964 96.6697 59.0998C96.869 58.2254 96.8236 57.3852 96.7876 56.4852C96.7834 56.094 96.7792 55.7029 96.7756 55.3118C96.7658 54.4893 96.7434 53.6673 96.7204 52.8452C96.6205 49.2568 96.5899 46.5352 98.6591 43.7468C99.0568 43.2105 99.0568 43.2105 99.1565 42.5505C99.3069 42.534 99.4574 42.5176 99.6124 42.5007C100.236 42.3274 100.463 42.1966 100.814 41.5536C100.814 40.8005 100.779 40.3502 100.379 39.7591C99.8004 39.466 99.4232 39.5628 98.8249 39.7591C98.4657 40.0581 98.4657 40.0581 98.3276 40.5566C98.3655 41.2187 98.4113 41.755 98.6591 42.3511C98.5497 42.5362 98.4403 42.7212 98.3276 42.9119C97.952 43.5068 97.952 43.5068 97.996 44.1456C97.8866 44.1456 97.7772 44.1456 97.6644 44.1456C97.4585 44.5224 97.2674 44.9111 97.0842 45.3046C96.7914 45.9291 96.5031 46.5398 96.1724 47.1365C96.1472 47.7032 96.1409 48.2496 96.1504 48.8157C96.1517 48.9832 96.153 49.1508 96.1543 49.3234C96.1587 49.8573 96.1653 50.391 96.1724 50.9249C96.1873 52.1022 96.1968 53.2789 96.1926 54.4563C96.1929 54.7981 96.1963 55.1398 96.2025 55.4815C96.2506 58.3321 96.2506 58.3321 95.6742 59.2036C95.2463 59.5662 94.8228 59.8314 94.3488 60.0968C94.1039 60.2916 93.8621 60.4921 93.6241 60.6988C93.3994 60.8845 93.1747 61.0702 92.95 61.2557C92.8351 61.3507 92.7202 61.4457 92.6019 61.5435C91.2156 62.6888 91.2156 62.6888 90.7015 62.6888C90.6892 61.6637 90.6802 60.6387 90.6742 59.6135C90.6717 59.2652 90.6683 58.9169 90.664 58.5687C90.6579 58.0663 90.6551 57.564 90.6529 57.0615C90.6504 56.9074 90.6478 56.7532 90.6452 56.5944C90.6448 55.3041 90.8887 54.2241 91.6444 53.2552C92.0638 52.7868 92.0638 52.7868 92.0278 52.3206C92.1372 52.3206 92.2466 52.3206 92.3594 52.3206C92.8818 51.5229 92.9319 50.788 92.9357 49.808C92.9396 49.5931 92.9396 49.5931 92.9435 49.374C92.9514 48.9189 92.956 48.4639 92.9603 48.0088C92.9664 47.5523 92.9731 47.0958 92.9807 46.6393C92.9852 46.356 92.9887 46.0726 92.9912 45.7892C92.9992 45.1877 93.0288 44.721 93.1883 44.1456C93.2977 44.1456 93.4071 44.1456 93.5198 44.1456C93.5198 44.014 93.5198 43.8824 93.5198 43.7468C93.6293 43.7468 93.7387 43.7468 93.8514 43.7468C94.6347 42.6798 94.7925 41.979 94.7451 40.5823C94.743 40.2379 94.741 39.8935 94.7393 39.5491C94.7318 39.0149 94.7219 38.4811 94.7083 37.9471C94.6534 35.4981 94.8803 33.8434 96.0162 31.778C96.3684 31.2477 96.3684 31.2477 96.3382 30.7865C96.492 30.7783 96.6459 30.7701 96.8044 30.7616C97.3809 30.6492 97.3809 30.6492 97.6437 29.9765C97.736 29.6866 97.736 29.6866 97.8302 29.3908C97.5093 28.8332 97.2863 28.4563 96.763 28.182C96.3165 28.163 96.3165 28.163 95.8615 28.4437C95.4638 28.9373 95.4638 28.9373 95.5352 29.45C95.5736 29.7168 95.5736 29.7168 95.6129 29.989C95.7995 31.4612 95.1955 32.4077 94.5145 33.578C94.0299 33.5132 93.8102 33.3404 93.4181 32.9769C92.8895 32.1815 92.9145 31.6573 92.9415 30.6705C92.9427 30.5081 92.9439 30.3458 92.9451 30.1785C92.9497 29.6624 92.9601 29.1467 92.9707 28.6306C92.9748 28.2798 92.9786 27.9289 92.982 27.578C92.9911 26.7199 93.0054 25.8621 93.0225 25.0042C93.1285 24.9426 93.2345 24.8809 93.3437 24.8173C93.675 24.6385 93.675 24.6385 93.8514 24.4061C93.8929 23.7165 93.8929 23.7165 93.8514 23.0103C93.5206 22.5262 93.5206 22.5262 92.8671 22.5493C92.45 22.5657 92.226 22.5914 91.8516 22.8234ZM98.9907 54.3145C98.612 54.8741 98.612 54.8741 98.6695 55.4983C98.775 56.1463 98.775 56.1463 99.2418 56.4347C99.7643 57.033 99.7555 57.3455 99.773 58.1825C99.7724 58.3485 99.7717 58.5145 99.7711 58.6855C99.7736 58.8569 99.7761 59.0284 99.7787 59.2051C99.7858 59.7516 99.7872 60.2979 99.7885 60.8445C99.7924 61.2155 99.7966 61.5865 99.8012 61.9575C99.8116 62.8659 99.817 63.7742 99.8196 64.6827C99.7208 64.7359 99.622 64.789 99.5202 64.8438C99.1493 65.0862 98.9279 65.3245 98.6423 65.6945C97.0919 67.6187 97.0919 67.6187 96.344 67.7787C95.9133 67.6985 95.9133 67.6985 95.519 67.5723C95.1443 67.422 95.1443 67.422 94.6803 67.7234C94.3145 68.0778 94.3145 68.0778 94.0172 68.6705C94.0443 69.3073 94.1465 69.611 94.4731 70.1161C94.9058 70.5209 95.1269 70.6487 95.675 70.6644C96.2165 70.48 96.2165 70.48 96.6697 70.0662C96.8901 69.4872 96.8901 69.4872 97.0013 68.8699C97.2241 68.2354 97.5046 67.817 97.9131 67.3371C98.014 67.2171 98.1149 67.097 98.2188 66.9734C98.4934 66.6766 98.4934 66.6766 98.8249 66.4772C98.8249 66.3456 98.8249 66.214 98.8249 66.0784C98.9172 66.0332 99.0096 65.988 99.1047 65.9414C99.626 65.5855 99.939 65.2489 100.317 64.6827C100.43 64.0886 100.417 63.5124 100.405 62.9054C100.406 62.7356 100.406 62.5658 100.407 62.3909C100.408 61.8504 100.405 61.3102 100.4 60.7697C100.393 60.0567 100.392 59.344 100.395 58.6309C100.391 58.4671 100.388 58.3032 100.385 58.1343C100.387 57.6725 100.387 57.6724 100.483 56.9065C100.894 56.5433 100.894 56.5433 101.312 56.3084C101.473 55.5321 101.523 55.0764 101.312 54.3145C100.361 53.6431 99.905 53.5532 98.9907 54.3145ZM84.6297 60.3211C84.3478 61.0299 84.3666 61.3495 84.5675 62.0907C84.8877 62.604 85.2551 62.8109 85.728 63.0876C85.7269 63.2071 85.7259 63.3267 85.7248 63.4498C85.7234 63.9981 85.7308 64.5457 85.7384 65.094C85.7365 65.282 85.7347 65.47 85.7329 65.6637C85.7544 66.7235 85.8318 67.3234 86.4734 68.084C86.5778 68.1893 86.6821 68.2945 86.7897 68.4029C87.0543 68.6705 87.0543 68.6705 87.2201 69.0693C87.3295 69.0693 87.4389 69.0693 87.5516 69.0693C87.682 69.6237 87.7377 70.114 87.7362 70.6895C87.7362 70.8491 87.7362 71.0088 87.7362 71.1732C87.7353 71.3435 87.7345 71.5139 87.7336 71.6894C87.7334 71.8653 87.7331 72.0412 87.7329 72.2224C87.732 72.7831 87.7299 73.3438 87.7278 73.9045C87.7269 74.2851 87.7262 74.6657 87.7255 75.0463C87.7237 75.9783 87.7208 76.9104 87.7174 77.8424C87.4206 78.027 87.1238 78.2116 86.827 78.3962C86.4904 78.6486 86.4904 78.6486 86.3911 79.3503C86.3611 80.0324 86.3611 80.0324 86.5569 80.6339C87.0218 81.0812 87.2837 81.232 87.8832 81.232C88.5217 80.9761 88.8119 80.6877 89.2095 80.0357C89.2504 79.417 89.2504 79.417 89.0437 78.8394C88.9324 78.7363 88.821 78.6332 88.7063 78.527C88.1983 77.7704 88.2901 77.0173 88.297 76.0728C88.2954 75.8811 88.2939 75.6894 88.2923 75.4919C88.2875 74.8796 88.287 74.2675 88.2873 73.6552C88.2867 73.043 88.2851 72.4308 88.2805 71.8186C88.2777 71.4378 88.2773 71.057 88.2794 70.6762C88.277 69.6711 88.277 69.6711 87.983 68.7468C87.734 68.4277 87.734 68.4277 87.3858 68.4711C87.3858 68.3395 87.3858 68.2079 87.3858 68.0723C87.2764 68.0723 87.167 68.0723 87.0543 68.0723C87.003 67.9449 86.9517 67.8174 86.8989 67.686C86.7501 67.2875 86.7501 67.2875 86.5569 67.0754C86.5309 66.7499 86.5153 66.4231 86.5045 66.0964C86.4975 65.8991 86.4906 65.7018 86.4834 65.4986C86.4769 65.291 86.4704 65.0835 86.4637 64.8696C86.4565 64.6613 86.4494 64.453 86.442 64.2384C86.4243 63.7219 86.4074 63.2054 86.3911 62.6888C86.4976 62.6369 86.604 62.585 86.7136 62.5315C87.1207 62.3079 87.1207 62.3079 87.1993 61.6171C87.219 60.9302 87.219 60.6408 86.8885 60.0968C86.1324 59.6421 85.2783 59.6896 84.6297 60.3211Z"/>
</mask>
<path d="M86.7876 16.6051C86.9798 16.6062 86.9798 16.6062 87.1757 16.6072C87.3771 16.6072 87.3771 16.6072 87.5825 16.6072C88.0283 16.6073 88.4742 16.6089 88.92 16.6104C89.2283 16.6108 89.5365 16.6111 89.8448 16.6113C90.6578 16.612 91.4708 16.614 92.2838 16.6162C93.1128 16.6182 93.9417 16.6191 94.7707 16.6201C96.3984 16.6223 98.0261 16.6258 99.6538 16.6299C99.6538 17.7485 99.6538 18.867 99.6538 20.0195C100.092 20.0195 100.529 20.0195 100.98 20.0195C101.146 20.2189 101.146 20.2189 101.166 20.5684C101.165 20.7202 101.165 20.8721 101.165 21.0286C101.165 21.286 101.165 21.286 101.165 21.5487C101.164 21.7352 101.163 21.9217 101.162 22.1139C101.162 22.3039 101.162 22.4939 101.161 22.6897C101.16 23.2992 101.158 23.9087 101.156 24.5182C101.155 24.9304 101.155 25.3425 101.154 25.7547C101.152 26.7673 101.149 27.78 101.146 28.7926C101.428 28.7865 101.428 28.7865 101.716 28.7802C102.306 28.7926 102.306 28.7926 102.472 28.992C102.484 29.3282 102.486 29.665 102.483 30.0014C102.481 30.1847 102.48 30.368 102.478 30.5568C102.476 30.6984 102.474 30.84 102.472 30.9859C102.144 30.9859 101.816 30.9859 101.477 30.9859C101.521 31.9222 101.565 32.8585 101.61 33.7947C101.625 34.1126 101.64 34.4305 101.655 34.7484C101.676 35.2078 101.698 35.6671 101.72 36.1264C101.727 36.2665 101.733 36.4065 101.74 36.5508C101.778 37.3449 101.847 38.1252 101.934 38.9143C102.021 39.8611 102.052 40.8136 102.094 41.7646C102.11 42.1067 102.11 42.1067 102.126 42.4557C102.159 43.181 102.191 43.9063 102.223 44.6316C102.266 45.5868 102.309 46.542 102.353 47.4971C102.363 47.714 102.372 47.9308 102.382 48.1543C102.429 49.1993 102.496 50.2341 102.598 51.2732C102.676 52.1509 102.711 53.0323 102.751 53.9134C102.761 54.1217 102.771 54.3301 102.781 54.5447C102.813 55.2198 102.845 55.8949 102.876 56.5701C102.898 57.0364 102.92 57.5028 102.943 57.9692C103.043 60.0817 103.141 62.1944 103.236 64.3073C103.247 64.5561 103.247 64.5561 103.258 64.81C103.293 65.5681 103.327 66.3263 103.36 67.0846C103.372 67.3523 103.384 67.62 103.396 67.8878C103.405 68.1131 103.415 68.3384 103.426 68.5706C103.456 69.0863 103.496 69.5928 103.546 70.1057C103.651 71.2042 103.705 72.3047 103.758 73.4083C103.768 73.6293 103.779 73.8503 103.79 74.078C103.813 74.5436 103.835 75.0093 103.858 75.475C103.891 76.1794 103.926 76.8838 103.961 77.5881C103.983 78.0434 104.005 78.4986 104.027 78.9539C104.037 79.1606 104.048 79.3674 104.058 79.5804C104.131 81.1356 104.13 82.6583 104.13 84.2229C96.7443 84.2229 88.961 84.2229 81.3516 84.2229C81.3516 76.048 81.7492 76.0479 81.915 74.2534C81.934 73.9255 81.9503 73.5973 81.9616 73.2689C81.9678 73.1029 81.974 72.9368 81.9804 72.7658C81.989 72.5152 81.989 72.5152 81.9979 72.2595C82.0311 71.2963 82.0679 70.3399 82.1637 69.3824C82.2851 68.1519 82.3092 66.9164 82.3469 65.6789C82.3531 65.4936 82.3593 65.3083 82.3657 65.1173C82.3707 64.9523 82.3757 64.7872 82.3809 64.6172C82.4123 64.0846 82.4123 64.0845 82.4923 63.4425C82.5753 62.7137 82.6224 61.9973 82.6559 61.263C82.6622 61.1285 82.6685 60.994 82.6749 60.8555C82.6954 60.4149 82.7151 59.9743 82.7348 59.5336C82.7492 59.2212 82.7636 58.9087 82.7781 58.5962C82.8153 57.7904 82.852 56.9846 82.8884 56.1787C82.9213 55.454 82.9546 54.7294 82.9879 54.0048C82.9942 53.868 83.0004 53.7313 83.0069 53.5904C83.0259 53.1783 83.0448 52.7662 83.0638 52.3541C83.0701 52.2169 83.0764 52.0796 83.0829 51.9382C83.4049 44.9476 83.7777 37.9659 84.2359 30.9859C83.853 30.9859 83.47 30.9859 83.0755 30.9859C83.0755 30.2621 83.0755 29.5383 83.0755 28.7926C83.5131 28.7926 83.9508 28.7926 84.4017 28.7926C84.389 28.6869 84.3764 28.5811 84.3633 28.4721C84.208 26.9588 84.2395 25.4635 84.2852 23.9442C84.2983 23.5042 84.3093 23.0641 84.3201 22.624C84.3788 20.4734 84.3788 20.4734 84.5675 20.0195C84.9505 20.0195 85.3334 20.0195 85.728 20.0195C85.7261 19.7915 85.7242 19.5635 85.7222 19.3286C85.7206 19.0314 85.7191 18.7341 85.7176 18.4368C85.7163 18.2864 85.7149 18.1359 85.7134 17.9808C85.712 17.5969 85.7193 17.213 85.728 16.8293C86.0189 16.4795 86.4003 16.606 86.7876 16.6051ZM91.8516 22.8234C91.5996 23.45 91.7326 23.9469 91.862 24.6055C91.9714 24.7371 92.0808 24.8687 92.1936 25.0042C92.3797 26.2215 92.3701 27.4628 92.3173 28.6945C92.3092 28.9117 92.3012 29.1289 92.293 29.3526C92.275 29.7954 92.2512 30.2379 92.2217 30.6798C92.2025 31.3654 92.2107 31.9173 92.3594 32.581C92.7291 33.063 92.7291 33.063 93.1863 33.4907C93.7668 34.1042 94.0606 34.531 94.159 35.4456C94.2128 36.4781 94.1782 37.5053 94.1415 38.5378C94.1361 38.8966 94.1313 39.2554 94.1273 39.6142C94.0791 42.4311 94.0791 42.4311 93.6856 43.1487C93.5762 43.1487 93.4668 43.1487 93.3541 43.1487C93.3541 43.2803 93.3541 43.4119 93.3541 43.5474C93.2446 43.5474 93.1352 43.5474 93.0225 43.5474C93.0225 43.679 93.0225 43.8106 93.0225 43.9462C92.124 43.4358 91.6078 42.5653 91.002 41.6532C90.8978 41.4993 90.7936 41.3453 90.6863 41.1867C90.2837 40.5891 89.896 40.0007 89.541 39.3603C89.4316 39.3603 89.3222 39.3603 89.2095 39.3603C89.2095 36.0046 89.2095 32.6488 89.2095 29.1914C89.4283 29.0598 89.6471 28.9282 89.8726 28.7926C89.9466 27.9351 89.9466 27.9351 89.6136 27.21C89.0397 26.9091 88.6482 27.024 88.049 27.1975C87.6738 27.5703 87.6738 27.5703 87.6449 28.1571C87.6606 28.8315 87.6606 28.8315 88.1327 29.1992C88.7411 30.0676 88.638 30.7976 88.6053 31.8964C88.6023 32.3184 88.5996 32.7404 88.5972 33.1625C88.5886 33.8237 88.5775 34.4845 88.5617 35.1455C88.4116 38.18 88.4116 38.18 89.4976 40.7856C89.782 41.1162 90.0721 41.44 90.3699 41.7529C90.5335 41.979 90.6936 42.2089 90.8466 42.4454C91.0847 42.7944 91.3231 43.1434 91.5615 43.4921C92.1681 44.4088 92.2072 44.6592 92.3594 45.9401C90.9369 45.9401 89.5145 45.9401 88.049 45.9401C87.9396 45.6111 87.8301 45.2821 87.7174 44.9432C87.3186 44.4635 87.109 44.424 86.5569 44.345C86.1869 44.4185 86.1869 44.4185 85.8938 44.5444C85.8938 44.676 85.8938 44.8076 85.8938 44.9432C85.7844 44.9432 85.675 44.9432 85.5622 44.9432C85.3357 45.5939 85.2023 45.9897 85.3343 46.6878C85.6019 47.2146 85.737 47.3558 86.2254 47.5352C86.7157 47.635 86.7157 47.635 87.2201 47.5352C87.3462 47.4046 87.4723 47.274 87.6023 47.1394C88.1358 46.6596 88.4141 46.6318 89.0728 46.6162C89.2646 46.6097 89.4564 46.6033 89.654 46.5967C89.8527 46.5939 90.0513 46.591 90.256 46.5881C90.5587 46.5793 90.5587 46.5793 90.8676 46.5702C91.3649 46.5562 91.862 46.5456 92.3594 46.5383C92.4274 51.3003 92.4274 51.3004 91.5719 52.5324C91.3378 52.7951 91.1029 53.0568 90.8673 53.3175C90.1678 54.2638 89.9156 55.0368 89.9306 56.3163C89.9291 56.4702 89.9277 56.6241 89.9262 56.7826C89.9229 57.288 89.9258 57.793 89.9296 58.2984C89.9302 58.6527 89.9308 59.0071 89.9312 59.3615C89.9333 60.1035 89.9388 60.8454 89.9465 61.5874C89.9557 62.5326 89.9527 63.4771 89.9466 64.4223C89.9438 65.1544 89.9493 65.8862 89.9571 66.6183C89.9594 66.9663 89.9589 67.3144 89.9553 67.6625C89.9394 69.5257 89.991 70.8707 91.1105 72.2551C91.4104 72.5976 91.7183 72.9262 92.0278 73.2565C92.1372 73.4539 92.2466 73.6513 92.3594 73.8546C92.4688 73.8546 92.5782 73.8546 92.6909 73.8546C92.9948 74.7576 93.0142 75.3005 92.8567 76.2473C92.9388 76.5434 92.9388 76.5434 93.0225 76.8455C93.1319 76.8455 93.2413 76.8455 93.3541 76.8455C93.3541 76.9771 93.3541 77.1087 93.3541 77.2443C94.2721 77.4595 94.2721 77.4595 95.1673 77.2443C95.5547 76.8537 95.5547 76.8537 95.6958 76.1725C95.7277 75.4346 95.7277 75.4346 95.3538 74.8765C94.8108 74.4234 94.5016 74.4029 93.8585 74.3492C93.1804 74.1574 92.7939 73.4734 92.3594 72.8577C92.2561 72.7194 92.1529 72.5811 92.0466 72.4387C91.7588 72.0512 91.4753 71.6617 91.1989 71.2626C91.1136 71.1524 91.0284 71.0423 90.9405 70.9288C90.4646 70.0053 90.5824 68.8279 90.5729 67.7664C90.5669 67.3281 90.5493 66.8917 90.5315 66.4539C90.487 64.4202 90.487 64.4202 91.0386 63.5572C91.4621 63.1419 91.8833 62.8108 92.3594 62.4894C92.5705 62.3259 92.7816 62.1623 92.9927 61.9988C93.1735 61.8728 93.3543 61.7469 93.5406 61.6171C93.8706 61.387 94.1973 61.1491 94.5145 60.8943C94.5145 60.7627 94.5145 60.6311 94.5145 60.4955C94.6079 60.4719 94.7012 60.4482 94.7974 60.4238C95.5452 60.1728 96.1445 59.7964 96.6697 59.0998C96.869 58.2254 96.8236 57.3852 96.7876 56.4852C96.7834 56.094 96.7792 55.7029 96.7756 55.3118C96.7658 54.4893 96.7434 53.6673 96.7204 52.8452C96.6205 49.2568 96.5899 46.5352 98.6591 43.7468C99.0568 43.2105 99.0568 43.2105 99.1565 42.5505C99.3069 42.534 99.4574 42.5176 99.6124 42.5007C100.236 42.3274 100.463 42.1966 100.814 41.5536C100.814 40.8005 100.779 40.3502 100.379 39.7591C99.8004 39.466 99.4232 39.5628 98.8249 39.7591C98.4657 40.0581 98.4657 40.0581 98.3276 40.5566C98.3655 41.2187 98.4113 41.755 98.6591 42.3511C98.5497 42.5362 98.4403 42.7212 98.3276 42.9119C97.952 43.5068 97.952 43.5068 97.996 44.1456C97.8866 44.1456 97.7772 44.1456 97.6644 44.1456C97.4585 44.5224 97.2674 44.9111 97.0842 45.3046C96.7914 45.9291 96.5031 46.5398 96.1724 47.1365C96.1472 47.7032 96.1409 48.2496 96.1504 48.8157C96.1517 48.9832 96.153 49.1508 96.1543 49.3234C96.1587 49.8573 96.1653 50.391 96.1724 50.9249C96.1873 52.1022 96.1968 53.2789 96.1926 54.4563C96.1929 54.7981 96.1963 55.1398 96.2025 55.4815C96.2506 58.3321 96.2506 58.3321 95.6742 59.2036C95.2463 59.5662 94.8228 59.8314 94.3488 60.0968C94.1039 60.2916 93.8621 60.4921 93.6241 60.6988C93.3994 60.8845 93.1747 61.0702 92.95 61.2557C92.8351 61.3507 92.7202 61.4457 92.6019 61.5435C91.2156 62.6888 91.2156 62.6888 90.7015 62.6888C90.6892 61.6637 90.6802 60.6387 90.6742 59.6135C90.6717 59.2652 90.6683 58.9169 90.664 58.5687C90.6579 58.0663 90.6551 57.564 90.6529 57.0615C90.6504 56.9074 90.6478 56.7532 90.6452 56.5944C90.6448 55.3041 90.8887 54.2241 91.6444 53.2552C92.0638 52.7868 92.0638 52.7868 92.0278 52.3206C92.1372 52.3206 92.2466 52.3206 92.3594 52.3206C92.8818 51.5229 92.9319 50.788 92.9357 49.808C92.9396 49.5931 92.9396 49.5931 92.9435 49.374C92.9514 48.9189 92.956 48.4639 92.9603 48.0088C92.9664 47.5523 92.9731 47.0958 92.9807 46.6393C92.9852 46.356 92.9887 46.0726 92.9912 45.7892C92.9992 45.1877 93.0288 44.721 93.1883 44.1456C93.2977 44.1456 93.4071 44.1456 93.5198 44.1456C93.5198 44.014 93.5198 43.8824 93.5198 43.7468C93.6293 43.7468 93.7387 43.7468 93.8514 43.7468C94.6347 42.6798 94.7925 41.979 94.7451 40.5823C94.743 40.2379 94.741 39.8935 94.7393 39.5491C94.7318 39.0149 94.7219 38.4811 94.7083 37.9471C94.6534 35.4981 94.8803 33.8434 96.0162 31.778C96.3684 31.2477 96.3684 31.2477 96.3382 30.7865C96.492 30.7783 96.6459 30.7701 96.8044 30.7616C97.3809 30.6492 97.3809 30.6492 97.6437 29.9765C97.736 29.6866 97.736 29.6866 97.8302 29.3908C97.5093 28.8332 97.2863 28.4563 96.763 28.182C96.3165 28.163 96.3165 28.163 95.8615 28.4437C95.4638 28.9373 95.4638 28.9373 95.5352 29.45C95.5736 29.7168 95.5736 29.7168 95.6129 29.989C95.7995 31.4612 95.1955 32.4077 94.5145 33.578C94.0299 33.5132 93.8102 33.3404 93.4181 32.9769C92.8895 32.1815 92.9145 31.6573 92.9415 30.6705C92.9427 30.5081 92.9439 30.3458 92.9451 30.1785C92.9497 29.6624 92.9601 29.1467 92.9707 28.6306C92.9748 28.2798 92.9786 27.9289 92.982 27.578C92.9911 26.7199 93.0054 25.8621 93.0225 25.0042C93.1285 24.9426 93.2345 24.8809 93.3437 24.8173C93.675 24.6385 93.675 24.6385 93.8514 24.4061C93.8929 23.7165 93.8929 23.7165 93.8514 23.0103C93.5206 22.5262 93.5206 22.5262 92.8671 22.5493C92.45 22.5657 92.226 22.5914 91.8516 22.8234ZM98.9907 54.3145C98.612 54.8741 98.612 54.8741 98.6695 55.4983C98.775 56.1463 98.775 56.1463 99.2418 56.4347C99.7643 57.033 99.7555 57.3455 99.773 58.1825C99.7724 58.3485 99.7717 58.5145 99.7711 58.6855C99.7736 58.8569 99.7761 59.0284 99.7787 59.2051C99.7858 59.7516 99.7872 60.2979 99.7885 60.8445C99.7924 61.2155 99.7966 61.5865 99.8012 61.9575C99.8116 62.8659 99.817 63.7742 99.8196 64.6827C99.7208 64.7359 99.622 64.789 99.5202 64.8438C99.1493 65.0862 98.9279 65.3245 98.6423 65.6945C97.0919 67.6187 97.0919 67.6187 96.344 67.7787C95.9133 67.6985 95.9133 67.6985 95.519 67.5723C95.1443 67.422 95.1443 67.422 94.6803 67.7234C94.3145 68.0778 94.3145 68.0778 94.0172 68.6705C94.0443 69.3073 94.1465 69.611 94.4731 70.1161C94.9058 70.5209 95.1269 70.6487 95.675 70.6644C96.2165 70.48 96.2165 70.48 96.6697 70.0662C96.8901 69.4872 96.8901 69.4872 97.0013 68.8699C97.2241 68.2354 97.5046 67.817 97.9131 67.3371C98.014 67.2171 98.1149 67.097 98.2188 66.9734C98.4934 66.6766 98.4934 66.6766 98.8249 66.4772C98.8249 66.3456 98.8249 66.214 98.8249 66.0784C98.9172 66.0332 99.0096 65.988 99.1047 65.9414C99.626 65.5855 99.939 65.2489 100.317 64.6827C100.43 64.0886 100.417 63.5124 100.405 62.9054C100.406 62.7356 100.406 62.5658 100.407 62.3909C100.408 61.8504 100.405 61.3102 100.4 60.7697C100.393 60.0567 100.392 59.344 100.395 58.6309C100.391 58.4671 100.388 58.3032 100.385 58.1343C100.387 57.6725 100.387 57.6724 100.483 56.9065C100.894 56.5433 100.894 56.5433 101.312 56.3084C101.473 55.5321 101.523 55.0764 101.312 54.3145C100.361 53.6431 99.905 53.5532 98.9907 54.3145ZM84.6297 60.3211C84.3478 61.0299 84.3666 61.3495 84.5675 62.0907C84.8877 62.604 85.2551 62.8109 85.728 63.0876C85.7269 63.2071 85.7259 63.3267 85.7248 63.4498C85.7234 63.9981 85.7308 64.5457 85.7384 65.094C85.7365 65.282 85.7347 65.47 85.7329 65.6637C85.7544 66.7235 85.8318 67.3234 86.4734 68.084C86.5778 68.1893 86.6821 68.2945 86.7897 68.4029C87.0543 68.6705 87.0543 68.6705 87.2201 69.0693C87.3295 69.0693 87.4389 69.0693 87.5516 69.0693C87.682 69.6237 87.7377 70.114 87.7362 70.6895C87.7362 70.8491 87.7362 71.0088 87.7362 71.1732C87.7353 71.3435 87.7345 71.5139 87.7336 71.6894C87.7334 71.8653 87.7331 72.0412 87.7329 72.2224C87.732 72.7831 87.7299 73.3438 87.7278 73.9045C87.7269 74.2851 87.7262 74.6657 87.7255 75.0463C87.7237 75.9783 87.7208 76.9104 87.7174 77.8424C87.4206 78.027 87.1238 78.2116 86.827 78.3962C86.4904 78.6486 86.4904 78.6486 86.3911 79.3503C86.3611 80.0324 86.3611 80.0324 86.5569 80.6339C87.0218 81.0812 87.2837 81.232 87.8832 81.232C88.5217 80.9761 88.8119 80.6877 89.2095 80.0357C89.2504 79.417 89.2504 79.417 89.0437 78.8394C88.9324 78.7363 88.821 78.6332 88.7063 78.527C88.1983 77.7704 88.2901 77.0173 88.297 76.0728C88.2954 75.8811 88.2939 75.6894 88.2923 75.4919C88.2875 74.8796 88.287 74.2675 88.2873 73.6552C88.2867 73.043 88.2851 72.4308 88.2805 71.8186C88.2777 71.4378 88.2773 71.057 88.2794 70.6762C88.277 69.6711 88.277 69.6711 87.983 68.7468C87.734 68.4277 87.734 68.4277 87.3858 68.4711C87.3858 68.3395 87.3858 68.2079 87.3858 68.0723C87.2764 68.0723 87.167 68.0723 87.0543 68.0723C87.003 67.9449 86.9517 67.8174 86.8989 67.686C86.7501 67.2875 86.7501 67.2875 86.5569 67.0754C86.5309 66.7499 86.5153 66.4231 86.5045 66.0964C86.4975 65.8991 86.4906 65.7018 86.4834 65.4986C86.4769 65.291 86.4704 65.0835 86.4637 64.8696C86.4565 64.6613 86.4494 64.453 86.442 64.2384C86.4243 63.7219 86.4074 63.2054 86.3911 62.6888C86.4976 62.6369 86.604 62.585 86.7136 62.5315C87.1207 62.3079 87.1207 62.3079 87.1993 61.6171C87.219 60.9302 87.219 60.6408 86.8885 60.0968C86.1324 59.6421 85.2783 59.6896 84.6297 60.3211Z" fill="white" stroke="white" stroke-width="3" mask="url(#path-1-inside-1_77_56)"/>
<path d="M89.1387 11.1213V16.6998H96.5766V11.1213L98.0286 14.3754L97.7388 8.79692L96.3442 7.86717V5.77524C95.4144 5.27162 93.5317 4.2179 93.4388 4.03195C93.3458 3.846 93.2451 1.94001 93.2063 1.01026L92.6252 0.31295L92.1604 1.01026C92.1216 1.90127 92.0209 3.75303 91.9279 4.03195C91.835 4.31088 90.0297 5.31036 89.1387 5.77524V7.63474L87.7441 9.02936V14.3754L89.1387 11.1213Z" fill="white" stroke="white" stroke-width="0.375"/>
<path d="M12.7696 84.223H0L33.3771 2.86983H45.6184L79.2597 84.223H66.0498L39.3657 17.9575L24.0421 56.1052H43.0644C43.0644 56.1052 46.5254 55.7494 49.8569 59.3522C53.1885 62.955 52.8398 65.7064 52.8398 65.7064H20.1672L12.7696 84.223Z" fill="white"/>
</svg>
